<svg width="295" height="63" viewBox="0 0 295 63" fill="none" xmlns="http://www.w3.org/2000/svg">
<g clip-path="url(#clip0_3_194)">
<path d="M95.9061 52.4989C92.0376 52.4989 88.4818 51.6032 85.2385 49.8119C82.0343 48.0206 79.4749 45.5283 77.5602 42.335C75.6845 39.1028 74.7467 35.4812 74.7467 31.4701C74.7467 27.4591 75.6845 23.8569 77.5602 20.6637C79.4749 17.4704 82.0343 14.9781 85.2385 13.1868C88.4818 11.3955 92.0376 10.4998 95.9061 10.4998C99.7746 10.4998 103.311 11.3955 106.515 13.1868C109.758 14.9781 112.298 17.4704 114.135 20.6637C116.01 23.8569 116.948 27.4591 116.948 31.4701C116.948 35.4812 116.01 39.1028 114.135 42.335C112.259 45.5283 109.719 48.0206 106.515 49.8119C103.311 51.6032 99.7746 52.4989 95.9061 52.4989ZM95.9061 43.3865C99.1884 43.3865 101.806 42.2961 103.76 40.1153C105.753 37.9345 106.75 35.0528 106.75 31.4701C106.75 27.8485 105.753 24.9668 103.76 22.825C101.806 20.6442 99.1884 19.5538 95.9061 19.5538C92.5847 19.5538 89.9275 20.6247 87.9347 22.7666C85.9809 24.9084 85.004 27.8096 85.004 31.4701C85.004 35.0918 85.9809 37.993 87.9347 40.1737C89.9275 42.3155 92.5847 43.3865 95.9061 43.3865Z" fill="#011630"/>
<path d="M159.333 52.09H149.31L132.547 26.7971V52.09H122.524V11.0839H132.547L149.31 36.4937V11.0839H159.333V52.09Z" fill="#011630"/>
<path d="M176.621 19.0865V27.3812H190.044V35.0918H176.621V44.0874H191.802V52.09H166.599V11.0839H191.802V19.0865H176.621Z" fill="#011630"/>
<path d="M221.227 52.09L203.467 33.2225V52.09H199.364V11.2592H203.467V30.3603L221.227 11.2592H226.444L207.277 31.6454L226.619 52.09H221.227Z" fill="#011630"/>
<path d="M236.781 14.5887V29.8346H252.313V33.2225H236.781V48.7021H254.071V52.09H232.678V11.2007H254.071V14.5887H236.781Z" fill="#011630"/>
<path d="M289.235 11.2592L276.106 36.2016V52.09H272.003V36.2016L258.756 11.2592H263.387L274.054 32.4632L284.663 11.2592H289.235Z" fill="#011630"/>
<path fill-rule="evenodd" clip-rule="evenodd" d="M13.3014 54.0927C12.6454 54.8606 11.4848 54.9567 10.7535 54.2596C6.06257 49.7869 2.85586 43.9707 1.594 37.5941C0.213683 30.6189 1.24173 23.3834 4.51096 17.0643C7.78018 10.7452 13.0983 5.71418 19.6005 2.78927C26.1027 -0.135649 33.4066 -0.782377 40.3244 0.95425C47.2422 2.69088 53.367 6.70871 57.703 12.3544C62.0389 18.0001 64.3308 24.9416 64.2061 32.05C64.0814 39.1585 61.5474 46.0159 57.0161 51.5071C53.3714 55.9239 48.6069 59.2478 43.2527 61.1572C42.8326 61.307 42.3904 61.0123 42.3546 60.5677L41.942 55.4432C41.9176 55.1406 42.0944 54.8585 42.3746 54.7415C46.1485 53.1658 49.5051 50.6909 52.1336 47.5056C55.7587 43.1126 57.7859 37.6267 57.8857 31.9399C57.9854 26.2531 56.1519 20.7 52.6831 16.1834C49.2144 11.6668 44.3145 8.45258 38.7803 7.06328C33.246 5.67398 27.403 6.19136 22.2012 8.53129C16.9994 10.8712 12.7449 14.8961 10.1295 19.9514C7.51415 25.0066 6.69172 30.795 7.79597 36.3752C8.78169 41.3564 11.2509 45.9102 14.8606 49.4531C15.5816 50.1608 15.6798 51.3088 15.0238 52.0767L13.3014 54.0927ZM50.4361 31.5003C50.4361 40.2829 44.0552 47.5801 35.6616 49.0389L35.6616 61.1229L35.7682 62.1443C35.8078 62.5235 35.5323 62.8637 35.1523 62.8947C29.5479 63.3527 23.922 62.3121 18.8557 59.8806C18.5115 59.7154 18.3762 59.2983 18.5498 58.9582L20.7892 54.5725C20.9622 54.2338 21.3762 54.0998 21.72 54.2625C24.1604 55.4179 26.7608 56.1713 29.4203 56.504L29.4203 49.0283C21.0566 47.545 14.7063 40.2617 14.7063 31.5003C14.7063 21.6675 22.7047 13.6964 32.5712 13.6964C42.4377 13.6964 50.4361 21.6675 50.4361 31.5003ZM44.1404 31.5003C44.1404 25.1326 38.9607 19.9706 32.5712 19.9706C26.1817 19.9706 21.002 25.1326 21.002 31.5003C21.002 37.8681 26.1817 43.0301 32.5712 43.0301C38.9607 43.0301 44.1404 37.8681 44.1404 31.5003Z" fill="url(#paint0_linear_3_194)"/>
</g>
<defs>
<linearGradient id="paint0_linear_3_194" x1="5.25149" y1="5.16399" x2="47.4415" y2="66.1506" gradientUnits="userSpaceOnUse">
<stop stop-color="#09F7FF"/>
<stop offset="1" stop-color="#0F9AFD"/>
</linearGradient>
<clipPath id="clip0_3_194">
<rect width="295" height="63" fill="white"/>
</clipPath>
</defs>
</svg>
